#!OML:ASF X:\für Bonn\!DataBase\2005_08_10_Bjorn_Final\c3d\bjorn.ASF
:FULLY-SPECIFIED
:DEGREES
342
root 0.346443 19.3421 5.08379 -179.833 34.1501 178.808
lowerback -5.15073 6.24787 -0.385356
upperback 5.60976 9.11927 -4.01119
thorax 9.4548 4.72026 -2.78198
lowerneck 4.52038 2.3279 12.5946
upperneck 8.84694 4.41058 -6.85191
head 2.31308 2.6425 -4.07561
rclavicle -2.68359e-014 -4.13472e-014
rhumerus 73.615 13.7702 -70.6073
rradius 45.8512
rwrist 26.3112
rhand -21.6564 0.891384
rfingers 7.12502
rthumb 4.74057 -29.0356
lclavicle -2.68359e-014 -4.13472e-014
lhumerus 47.9189 -16.9138 76.9827
lradius 62.4615
lwrist 59.7187
lhand -39.4705 -1.40322
lfingers 7.12502
lthumb -12.4573 28.2055
rfemur 535.465 -185.821 -534.033
rtibia 36.3455
rfoot -5.92834 22.7781
rtoes -26.5911
lfemur 342.984 -4.9256 349.263
ltibia 33.214
lfoot -5.84889 -1.95504
ltoes -26.7191
343
root 0.365833 19.3198 5.10267 -179.981 34.0703 178.714
lowerback -5.33454 6.19679 -0.268984
upperback 5.59733 9.01802 -3.88179
thorax 9.53725 4.66481 -2.70359
lowerneck 4.51167 2.30328 12.5213
upperneck 9.16185 4.42222 -7.05489
head 2.40969 2.65672 -4.12556
rclavicle -2.06736e-014 -4.77083e-014
rhumerus 73.2229 14.1369 -70.327
rradius 46.3409
rwrist 26.1061
rhand -22.5064 0.992315
rfingers 7.12502
rthumb 3.91975 -28.9514
lclavicle -2.06736e-014 -4.77083e-014
lhumerus 47.233 -16.9308 76.4272
lradius 62.8283
lwrist 58.1641
lhand -38.3801 -2.49475
lfingers 7.12502
lthumb -11.4059 27.175
rfemur 535.635 -185.811 -533.987
rtibia 35.9025
rfoot -5.93942 22.6833
rtoes -26.934
lfemur 343.031 -4.71949 349.249
ltibia 33.2796
lfoot -6.05843 -2.19561
ltoes -26.4186
344
root 0.385183 19.2903 5.12249 -180.142 33.9962 178.583
lowerback -5.54254 6.15928 -0.153835
upperback 5.60128 8.94283 -3.78354
thorax 9.65979 4.62462 -2.64988
lowerneck 4.43044 2.27429 12.4644
upperneck 9.47632 4.41686 -7.24275
head 2.51639 2.66043 -4.1727
rclavicle -1.15494e-013 6.12257e-014
rhumerus 72.8594 14.4255 -69.8787
rradius 46.8561
rwrist 25.9957
rhand -23.2603 0.989566
rfingers 7.12502
rthumb 3.19175 -28.9663
lclavicle -1.15494e-013 6.12257e-014
lhumerus 46.597 -17.0092 75.8351
lradius 63.2399
lwrist 56.3742
lhand -37.3116 -3.41354
lfingers 7.12502
lthumb -10.3753 26.3105
rfemur 535.811 -185.81 -533.981
rtibia 35.4868
rfoot -5.99791 22.6367
rtoes -27.3199
lfemur 343.022 -4.48144 349.207
ltibia 33.4232
lfoot -6.32075 -2.44662
ltoes -26.0459
345
root 0.405522 19.2544 5.14388 -180.32 33.9553 178.405
lowerback -5.77324 6.14224 -0.0836364
upperback 5.61818 8.9032 -3.69454
thorax 9.80729 4.59966 -2.57318
lowerneck 4.2349 2.24679 12.3925
upperneck 9.86689 4.4017 -7.39388
head 2.66243 2.65863 -4.20424
rclavicle -1.58233e-013 8.5875e-014
rhumerus 72.2686 14.7075 -69.6777
rradius 47.6099
rwrist 26.3248
rhand -24.0116 1.07409
rfingers 7.12502
rthumb 2.46618 -28.8914
lclavicle -1.58233e-013 8.5875e-014
lhumerus 45.9797 -17.1147 75.2635
lradius 63.7293
lwrist 54.5399
lhand -36.2755 -4.25421
lfingers 7.12502
lthumb -9.37564 25.5173
rfemur 536.002 -185.908 -534.02
rtibia 35.1126
rfoot -6.11921 22.6148
rtoes -27.313
lfemur 342.976 -4.19856 349.124
ltibia 33.6348
lfoot -6.65819 -2.70075
ltoes -25.9444
346
root 0.424751 19.2109 5.16868 -180.547 33.8896 178.174
lowerback -5.94694 6.1107 -0.0463482
upperback 5.61502 8.8483 -3.63483
thorax 9.89806 4.56777 -2.51975
lowerneck 4.0729 2.22678 12.4136
upperneck 10.2631 4.41171 -7.59048
head 2.81014 2.6727 -4.26542
rclavicle -1.37161e-014 -1.66979e-014
rhumerus 71.5334 15.0026 -69.5967
rradius 48.5854
rwrist 26.5846
rhand -24.7837 1.19333
rfingers 7.12502
rthumb 1.72044 -28.7795
lclavicle -1.37161e-014 -1.66979e-014
lhumerus 45.3338 -17.2413 74.6527
lradius 64.0779
lwrist 52.3347
lhand -35.0964 -4.91974
lfingers 7.12502
lthumb -8.23781 24.8997
rfemur 536.237 -186.006 -534.115
rtibia 34.7803
rfoot -6.30105 22.665
rtoes -26.853
lfemur 342.895 -3.98534 349.004
ltibia 33.9144
lfoot -7.02316 -2.93211
ltoes -25.6699
